<svg width="40" height="40" viewBox="0 0 40 40" fill="none" xmlns="http://www.w3.org/2000/svg">
<g clip-path="url(#clip0)">
<path d="M0 0H40.2143V40.2143H0V0Z" fill="white"/>
<path d="M14.2839 28.4287L24.4267 29.2859C24.4267 29.2859 28.141 33.5716 27.9981 34.5001C27.8553 35.4287 28.8553 39.8573 26.9981 40.7858C25.141 41.7144 19.2839 39.7858 18.3553 39.5716C17.4267 39.3573 14.4267 40.7858 12.4267 38.2144C10.4267 35.5001 11.9267 37.143 11.9267 35.7858C11.7839 34.4287 14.2839 28.4287 14.2839 28.4287Z" fill="#555659"/>
<path d="M26.6427 28.3571C26.357 28.4285 26.2142 28.5 26.2142 28.5714C26.2142 28.7857 26.4999 28.6428 27.4284 29.0714C26.1771 29.4342 24.868 29.5554 23.5713 29.4285C23.7329 29.112 23.8529 28.7759 23.9284 28.4285C24.0178 28.251 24.0666 28.0558 24.0713 27.8571C25.0713 27.7143 24.6427 27.5714 25.7142 27.4285C25.7142 27.3571 26.1427 27.3571 26.1427 27.2857C25.9999 27.2143 26.7856 27.0714 26.6427 27.0714C26.4944 26.9847 26.3513 26.8893 26.2142 26.7857C28.5484 25.5536 30.3333 23.4881 31.2142 21C28.9284 20.6428 27.9999 19.8571 27.6427 18.2143C26.8559 18.0429 26.0387 18.0707 25.2653 18.2952C24.4919 18.5198 23.7869 18.9339 23.2142 19.5C23.1427 19.1428 23.1427 18.8571 23.0713 18.5C21.9999 20.2143 21.7142 20.5 20.9999 20.6428C20.4042 19.4252 19.9948 18.125 19.7856 16.7857C19.4284 18.4285 19.4284 19.4285 18.7142 20.8571C18.0713 20.7143 17.4999 20.1428 16.4284 18.5C16.3508 18.8283 16.303 19.163 16.2856 19.5C15.7321 18.9791 15.0515 18.6126 14.312 18.4371C13.5725 18.2616 12.7998 18.2833 12.0713 18.5C11.7142 20.1428 11.7142 20.7857 9.42845 21.2143C10.357 23.7857 11.6427 25.5714 13.9999 26.8571C13.7999 26.9818 13.5835 27.0779 13.357 27.1428C13.2142 27.2143 13.1427 27.3571 12.9999 27.4285C12.9999 27.5 12.4284 27.1428 12.4284 27.2143C13.357 27.3571 14.4284 27.7143 15.357 27.9285C15.4463 28.1061 15.4951 28.3013 15.4999 28.5C15.5754 28.8473 15.6954 29.1834 15.857 29.5C14.5603 29.6268 13.2513 29.5056 11.9999 29.1428C13.2142 29 13.2142 28.8571 13.2142 28.6428C13.2142 28.5714 13.2142 28.3571 12.857 28.2857C8.78559 27.8571 6.99988 24.5714 6.14274 23.1428C6.99988 23.5 7.42845 23.7857 7.57131 23.5714C7.71416 23.3571 7.71416 23.2857 7.42845 23.0714C6.57131 22.2143 6.14274 19.4285 5.99988 18.2143C6.57131 18.4285 7.57131 18.9285 8.49988 18.6428C9.64273 18.2857 10.5713 17.2857 11.2142 15.6428C11.2856 15.6428 11.357 15.7143 11.4284 15.7143L11.6427 15.2857C11.6782 15.2071 11.6966 15.1219 11.6966 15.0357C11.6966 14.9495 11.6782 14.8642 11.6427 14.7857C11.1701 13.5769 10.9045 12.297 10.857 11C10.9242 10.495 11.0196 9.99426 11.1427 9.49997C11.928 9.88479 12.6127 10.4473 13.1427 11.1428C13.4328 11.4937 13.7428 11.8276 14.0713 12.1428C14.5713 12.6428 15.4999 12.8571 15.6427 12.1428C15.7142 11.9285 15.4999 11.7143 15.357 11.5C15.3381 11.5 15.3199 11.4924 15.3065 11.479C15.2931 11.4657 15.2856 11.4475 15.2856 11.4285C16.0713 11.1428 17.9284 10.5 19.4999 10.8571H19.7142C19.7856 10.8571 19.857 10.9285 19.9284 10.8571C21.4461 10.5442 23.0181 10.6179 24.4999 11.0714L24.857 11.6428C24.7142 11.8571 24.357 12.0714 24.4284 12.2143C24.6427 12.5 24.7142 12.6428 25.2142 12.0714C25.503 11.6969 25.813 11.3391 26.1427 11C26.8932 10.1459 27.819 9.46375 28.857 8.99997C28.9284 9.42854 29.0713 10.7857 29.0713 11.1428C29.0582 12.3747 28.7907 13.5906 28.2856 14.7143C28.2142 14.8571 27.9284 15.0714 27.9999 15.2857C28.0713 15.5 27.9999 15.2857 28.0713 15.4285C28.1427 15.4285 28.357 15.5714 28.4284 15.5714L28.357 15.7143C28.9999 17.3571 29.857 18.0714 30.9999 18.4285C31.942 18.6298 32.9247 18.5038 33.7856 18.0714C33.6427 19.2143 32.7142 22.2143 31.7856 23.1428C31.5713 23.3571 31.5713 23.5714 31.6427 23.6428C31.7142 23.7143 32.4284 23.3571 33.357 23C32.7142 25 29.9999 27.8571 26.6427 28.3571Z" fill="#C3C2CE"/>
<path d="M33.3567 20.3572C33.1659 20.7662 32.8371 21.0949 32.4282 21.2858V20.0001C31.1425 20.1429 28.9282 20.2858 28.6425 17.2858H28.571C28.0129 16.9249 27.3757 16.7043 26.7139 16.6429C26.4996 16.6429 26.2853 16.5715 26.1425 16.5715L26.6425 15.7144C26.6425 15.7144 23.7139 15.5715 22.1425 17.2858C21.9282 17.5001 22.1425 16.2144 22.1425 16.2144C21.3901 16.4365 20.687 16.8001 20.071 17.2858L19.7853 18.3572L19.4996 17.2858C18.8836 16.8001 18.1805 16.4365 17.4282 16.2144C17.4282 16.2144 17.6425 17.4287 17.4282 17.2858C15.7853 15.5715 12.9282 15.7144 12.9282 15.7144L13.4282 16.5715C13.2349 16.5599 13.0412 16.5841 12.8567 16.6429C12.2084 16.7608 11.582 16.9776 10.9996 17.2858H10.9282C10.6425 20.2858 8.42817 20.1429 7.14246 20.0001V21.2858C6.9301 21.2067 6.73726 21.0829 6.57703 20.9227C6.4168 20.7624 6.29295 20.5696 6.21388 20.3572L6.14246 20.7144L6.21388 21.1429C8.14246 25.3572 10.1425 26.0001 13.2139 26.7144L14.1425 26.7858L15.3567 27.4287L15.4996 28.2858C15.7853 29.3572 16.2139 29.6429 17.1425 30.3572L17.4996 30.6429L18.571 30.0715L19.7139 29.9287L20.8567 30.0715L21.7139 30.5001L22.1425 30.6429C22.9985 30.094 23.6314 29.2585 23.9282 28.2858L24.071 27.4287L25.2853 26.7858L26.2139 26.7144C29.2853 25.9287 31.571 24.8572 33.4282 20.5715L33.3567 20.3572Z" fill="white"/>
<path d="M19.1438 26.0716C19.4056 25.9602 19.689 25.9088 19.9733 25.9212C20.2576 25.9336 20.5355 26.0094 20.7866 26.1431C20.9035 26.1864 21.0071 26.2595 21.087 26.3553C21.1669 26.451 21.2203 26.566 21.242 26.6888C21.2636 26.8116 21.2528 26.9379 21.2105 27.0552C21.1682 27.1725 21.0959 27.2767 21.0009 27.3574L20.9295 27.4288C20.0723 28.5717 19.5009 28.2859 18.7152 27.2145C18.6604 27.142 18.6222 27.0584 18.6033 26.9695C18.5843 26.8807 18.5851 26.7887 18.6055 26.7002C18.6259 26.6117 18.6655 26.5287 18.7215 26.4571C18.7775 26.3855 18.8485 26.3271 18.9295 26.2859C18.9295 26.1431 19.0009 26.1431 19.1438 26.0716Z" fill="#1E1E40"/>
<path d="M33.5721 22.4284C33.3578 22.4998 33.1435 22.6427 32.9293 22.7141C33.6017 21.174 34.0121 19.5323 34.1435 17.8569L34.215 17.2141L33.715 17.5712C32.9424 18.033 32.0241 18.186 31.1435 17.9998C30.215 17.7141 29.3578 16.8569 28.7864 15.3569V15.2855C28.7817 15.2467 28.7857 15.2074 28.7981 15.1704C28.8104 15.1333 28.8308 15.0995 28.8578 15.0712C29.198 14.3309 29.4845 13.567 29.715 12.7855C30.1692 11.4569 30.1183 10.0076 29.5721 8.71409C29.1435 7.78552 29.1435 7.78552 28.1435 7.9998C26.7335 8.39283 25.468 9.18689 24.5007 10.2855C24.4472 10.3481 24.3818 10.3994 24.3081 10.4362C24.2345 10.473 24.1543 10.4946 24.0721 10.4998C22.7331 9.97382 21.2753 9.82558 19.8578 10.0712H19.715C18.2975 9.82558 16.8397 9.97382 15.5007 10.4998C15.4185 10.4946 15.3383 10.473 15.2646 10.4362C15.191 10.3994 15.1255 10.3481 15.0721 10.2855C14.085 9.21038 12.8267 8.42084 11.4293 7.9998C10.4293 7.71409 10.4293 7.78552 10.0007 8.71409C9.37366 10.0062 9.27127 11.491 9.71497 12.8569C9.92925 13.6427 10.2864 14.2855 10.5721 15.1427C10.5674 15.1814 10.5714 15.2208 10.5838 15.2578C10.5961 15.2949 10.6165 15.3287 10.6435 15.3569V15.4284C10.0721 16.8569 9.35782 17.7855 8.28639 18.0712C7.85066 18.1725 7.39923 18.1867 6.95797 18.1132C6.51672 18.0396 6.09431 17.8797 5.71497 17.6427L5.21497 17.2855L5.42925 17.8569C5.56065 19.5323 5.97106 21.174 6.64354 22.7141C6.42925 22.6427 6.21497 22.4998 6.00068 22.4284L5.21497 22.0712L5.57211 22.8569C5.64354 23.0712 7.64354 27.2141 11.5007 28.4998C11.1435 28.5712 10.7864 28.5712 10.4293 28.6427L9.42925 28.7855L10.3578 29.2855C11.8827 29.7852 13.4689 30.0735 15.0721 30.1427C15.457 30.1348 15.84 30.0869 16.215 29.9998C16.3675 30.2248 16.5614 30.4187 16.7864 30.5712C16.9462 30.6781 17.1132 30.7735 17.2864 30.8569H17.5007L18.1435 30.4998C18.2594 30.555 18.3787 30.6027 18.5007 30.6427C18.8806 30.8211 19.2952 30.9135 19.715 30.9135C20.1347 30.9135 20.5493 30.8211 20.9293 30.6427L21.2864 30.4998L21.9293 30.8569H22.1435C22.3305 30.8027 22.5019 30.7047 22.6435 30.5712C22.8516 30.3992 23.0429 30.2078 23.215 29.9998C23.5899 30.0869 23.9729 30.1348 24.3578 30.1427C25.9601 30.0653 27.5452 29.7771 29.0721 29.2855L30.3578 28.8569L29.0007 28.7141C28.6435 28.6427 28.2864 28.6427 27.9293 28.5712C31.7864 27.2855 33.7864 23.0712 33.8578 22.9284L34.215 22.1427L33.5721 22.4284ZM22.0721 30.2141C21.0007 29.5712 20.3578 29.2141 19.7864 29.2141C19.215 29.2141 18.6435 29.4998 17.5007 30.2141C15.8578 29.2855 15.715 26.2855 16.5007 24.8569C16.6278 25.131 16.7236 25.4186 16.7864 25.7141C16.9939 25.1304 17.2323 24.5581 17.5007 23.9998C18.0007 23.0712 18.1435 22.8569 18.1435 22.8569C18.715 21.9998 20.7864 21.9998 21.2864 22.8569C21.5535 23.2057 21.7699 23.5904 21.9293 23.9998C22.2227 24.5466 22.4619 25.1207 22.6435 25.7141C22.715 25.4284 22.8578 25.1427 22.9293 24.8569C23.7864 26.3569 23.6435 29.3569 22.0721 30.2141ZM15.4293 23.2855C14.5007 23.0712 14.0721 22.3569 13.5721 21.9284C14.715 22.0712 16.5007 22.4998 16.8578 22.8569C16.6899 23.0631 16.464 23.2142 16.2094 23.2906C15.9547 23.367 15.6829 23.3652 15.4293 23.2855ZM22.715 22.8569C23.0721 22.4998 24.8578 22.0712 26.0007 21.9284C25.5309 22.5559 24.8841 23.0285 24.1435 23.2855C23.8895 23.3595 23.6194 23.3584 23.3659 23.2824C23.1124 23.2064 22.8863 23.0586 22.715 22.8569ZM26.6435 28.3569C26.3578 28.4284 25.715 28.4998 25.7864 28.4998C25.8578 28.6427 26.215 28.6427 27.5007 29.0712C26.2493 29.434 24.9403 29.5552 23.6435 29.4284C23.8051 29.1118 23.9252 28.7757 24.0007 28.4284C24.09 28.2508 24.1388 28.0556 24.1435 27.8569C25.1435 27.7141 26.1435 27.4998 27.1435 27.3569C27.0111 27.2798 26.8907 27.1835 26.7864 27.0712C26.638 26.9845 26.4949 26.8891 26.3578 26.7855C28.692 25.5534 30.477 23.4879 31.3578 20.9998C29.0721 20.6427 28.1435 19.8569 27.7864 18.2141C26.9995 18.0427 26.1823 18.0705 25.409 18.2951C24.6356 18.5196 23.9306 18.9337 23.3578 19.4998C23.2864 19.1427 23.2864 18.8569 23.215 18.4998C22.1435 20.2141 21.8578 20.4998 21.1435 20.6427C20.514 19.1379 20.105 17.5501 19.9293 15.9284C19.5721 17.5712 19.4293 19.1427 18.715 20.6427C18.0721 20.4998 17.7864 20.2141 16.6435 18.4998C16.5659 18.8281 16.5181 19.1628 16.5007 19.4998C15.9348 18.9236 15.2302 18.5027 14.4546 18.2775C13.679 18.0523 12.8586 18.0305 12.0721 18.2141C11.715 19.8569 10.7864 20.6427 8.50068 20.9998C9.39897 23.4777 11.1791 25.5376 13.5007 26.7855C13.3755 26.9049 13.2304 27.0015 13.0721 27.0712C12.9293 27.1427 12.8578 27.1427 12.715 27.2141C13.6435 27.3569 14.5007 27.8569 15.4293 28.0712C15.5007 28.2141 15.7864 28.2855 15.7864 28.4998C15.8619 28.8471 15.9819 29.1832 16.1435 29.4998C14.8468 29.6266 13.5378 29.5054 12.2864 29.1427C13.5007 28.9998 13.5007 28.8569 13.5007 28.6427C13.5007 28.5712 13.5007 28.3569 13.1435 28.2855C9.78639 27.8569 7.64354 24.9284 6.78639 23.4284C7.64354 23.7855 8.07211 24.0712 8.21497 23.9284C8.35782 23.7855 7.92925 23.4998 7.71497 23.2141C7.00068 22.2141 6.50068 19.6427 6.35782 18.4284C7.14722 18.7636 8.02289 18.8387 8.85782 18.6427C10.0007 18.2855 10.9293 17.2855 11.5721 15.6427C11.6435 15.6427 11.715 15.7141 11.7864 15.7141L12.0007 15.2855C12.0362 15.207 12.0545 15.1217 12.0545 15.0355C12.0545 14.9493 12.0362 14.8641 12.0007 14.7855C11.5281 13.5767 11.2624 12.2969 11.215 10.9998C11.2317 10.6156 11.2795 10.2334 11.3578 9.85694C12.1635 10.2084 12.8737 10.7471 13.4293 11.4284C13.7181 11.8029 14.0281 12.1606 14.3578 12.4998C14.4745 12.6217 14.6205 12.7116 14.7818 12.7609C14.9431 12.8102 15.1144 12.8173 15.2793 12.7814C15.4441 12.7456 15.597 12.668 15.7234 12.5562C15.8497 12.4443 15.9451 12.302 16.0007 12.1427C16.0721 11.9284 15.8578 11.7141 15.715 11.4998C15.696 11.4998 15.6779 11.4923 15.6645 11.4789C15.6511 11.4655 15.6435 11.4473 15.6435 11.4284C16.4293 11.1427 18.2864 10.4998 19.8578 10.8569H20.215C21.6454 10.6284 23.1114 10.8272 24.4293 11.4284H24.0721C23.9293 11.6427 23.715 11.9284 23.7864 12.0712C23.8403 12.2319 23.9349 12.3759 24.0611 12.489C24.1873 12.6021 24.3408 12.6805 24.5064 12.7165C24.672 12.7525 24.8441 12.7449 25.0059 12.6944C25.1677 12.6439 25.3135 12.5522 25.4293 12.4284C25.7181 12.0538 26.0281 11.6961 26.3578 11.3569C26.9073 10.6695 27.6192 10.1295 28.4293 9.78552C28.5076 10.162 28.5553 10.5442 28.5721 10.9284C28.559 12.2294 28.2921 13.5153 27.7864 14.7141C27.7509 14.7927 27.7325 14.8779 27.7325 14.9641C27.7325 15.0503 27.7509 15.1355 27.7864 15.2141L28.0007 15.6427C28.0721 15.6427 28.1435 15.5712 28.215 15.5712C28.8578 17.2141 29.7864 18.2141 30.9293 18.5712C31.7603 18.8126 32.6514 18.7362 33.4293 18.3569C33.2192 19.9653 32.7614 21.5315 32.0721 22.9998C31.8578 23.3569 31.5007 23.7141 31.5721 23.7855C31.6435 23.8569 32.0721 23.7141 32.8578 23.3569C32.0721 24.7855 30.0007 27.8569 26.6435 28.3569Z" fill="#1E1E40"/>
<path d="M19.8561 26.786C20.2112 26.786 20.499 26.6901 20.499 26.5717C20.499 26.4534 20.2112 26.3574 19.8561 26.3574C19.5011 26.3574 19.2133 26.4534 19.2133 26.5717C19.2133 26.6901 19.5011 26.786 19.8561 26.786Z" fill="white"/>
<path d="M14.8559 27.6425L16.8559 30.0711C17.5671 30.9724 18.1224 31.9864 18.4987 33.0711C19.1416 35.1425 19.5702 34.4997 19.9273 37.4997L19.8559 40.9997L15.4273 40.714C15.4273 40.714 14.8559 40.4283 11.713 33.4283C11.4987 32.9283 10.713 28.1425 10.713 28.1425L13.8559 27.714H14.8559V27.6425Z" fill="#4A4797"/>
<path d="M14.9279 27.3575C14.8565 27.6432 14.8565 27.8575 14.785 28.1432L16.5707 30.3575L16.9993 31.0003C17.5068 31.6921 17.8932 32.465 18.1422 33.286C18.3565 34.0003 18.7136 34.7146 18.9993 35.5717C19.1422 35.9289 19.6422 36.786 19.785 37.286C19.9279 37.0717 19.9279 36.4289 20.0708 36.2146C19.9993 36.0003 19.6422 35.6432 19.5707 35.4289C19.247 34.7061 18.9609 33.967 18.7136 33.2146C18.4399 32.3238 18.0303 31.4805 17.4993 30.7146C17.3401 30.5117 17.1968 30.2968 17.0707 30.0717L14.9279 27.5003V27.3575Z" fill="#1E1E40"/>
<path d="M39.071 36.8569C39.1424 34.3569 38.3567 33.9998 36.4995 32.4284C34.7853 30.9998 31.1424 30.2141 31.1424 30.2141C31.1424 29.7855 31.4281 27.6426 31.4995 27.2855C31.9995 25.4998 31.7853 25.3569 31.7853 25.3569C30.0776 25.4017 28.3787 25.6171 26.7138 25.9998C25.1767 26.2523 23.6267 26.4192 22.071 26.4998L22.4995 28.7141H20.7138L20.7853 33.1426L19.7853 38.5712C19.7853 38.5712 19.4995 42.4998 18.571 40.9284C17.7138 39.4998 17.7138 39.7141 17.071 38.5712C15.4281 35.9998 16.071 37.2141 13.4995 33.2141C13.071 32.5712 15.3567 31.6426 15.2138 30.9284L14.7853 29.4998L14.9995 27.7141L9.14241 26.7141L9.28526 27.3569C9.37125 27.7707 9.49069 28.1768 9.64241 28.5712C9.85669 29.1426 10.1424 29.7141 10.4281 30.3569L10.6424 30.7855C10.6424 30.7855 5.21384 30.7141 3.21384 33.7855C2.5746 34.6321 2.06874 35.5715 1.71384 36.5712C1.35224 37.7253 1.2546 38.9458 1.42812 40.1426L2.14241 40.8569L23.7138 41.2141L38.8567 40.4998C38.8567 40.5712 38.9995 38.6426 39.071 36.8569Z" fill="#2E2C55"/>
<path d="M19.4983 41.8571L0.998327 40.9286C0.982168 39.3782 1.05371 37.8281 1.21261 36.2857C1.55597 35.3306 2.09069 34.4556 2.78404 33.7143C5.21261 31 8.78404 30.5 10.0698 30.4286C9.76511 29.8531 9.50251 29.2563 9.28404 28.6429C9.14118 28.2143 9.06976 27.8571 8.9269 27.4286L8.71261 26.2857L15.284 27.4286L14.9983 29.5L15.3555 30.9286C15.4983 31.5 14.9269 31.9286 14.4269 32.3571C14.2126 32.5714 13.7126 32.9286 13.7126 33.0714C13.9983 33.6429 15.284 35.4286 16.3555 37L17.284 38.3571C17.7491 39.0489 18.1782 39.7641 18.5698 40.5C18.9269 41.1429 19.3555 40.2857 19.3555 40.2857L19.284 38.5L20.284 33.0714L20.3555 28.3571H22.1412L21.7126 26.1429H22.1412C23.6492 26.0587 25.1515 25.8918 26.6412 25.6429C28.3028 25.2425 30.0036 25.0269 31.7126 25H31.784L31.8555 25.0714C32.0698 25.2143 32.2126 25.5714 31.7126 27.3571C31.6412 27.7143 31.4269 29.2857 31.3555 29.9286C32.2126 30.1429 35.0698 30.7857 36.5698 32.1429C38.4983 33.8571 39.4269 34.6429 39.2126 37.2143C38.9269 41.8571 39.1412 41.0714 39.1412 41.0714L19.4983 41.8571ZM21.1412 29.0714L21.0698 33.1429L20.2126 40.5L28.8555 40.4286L37.4269 40.3571L38.7126 40.2143V37.0714C38.784 34.5714 37.9983 34.2143 36.2126 32.7143C34.5698 31.3571 31.0698 30.5714 31.0698 30.5714L30.8555 30.5V30.2143C30.8555 29.7143 31.1412 27.5714 31.2126 27.1429C31.3479 26.6756 31.4435 26.1977 31.4983 25.7143C29.91 25.7782 28.3315 25.9935 26.784 26.3571C25.3649 26.5968 23.9345 26.7637 22.4983 26.8571L22.9269 29.0714H21.1412ZM1.78404 40.6429L12.784 40.9286C12.7126 40.7857 19.5698 42.2143 16.784 38.7143L15.8555 37.3571C14.7126 35.6429 13.4983 34 13.2126 33.4286C12.9269 32.8571 13.4983 32.3571 14.0698 31.8571C14.3555 31.6429 14.8555 31.2143 14.784 31.0714L14.3555 29.5L14.4983 27.9286L9.4269 27.0714L9.49833 27.2857C9.56976 27.6429 9.71261 28.0714 9.78404 28.4286C9.98621 29.0255 10.2495 29.6 10.5698 30.1429L11.0698 31.0714H10.4983C9.99833 31.0714 6.35547 31.2143 3.9269 33.5C3.04004 34.3061 2.35497 35.3092 1.9269 36.4286C1.80929 36.7975 1.76085 37.1849 1.78404 37.5714C1.69746 38.5934 1.69746 39.6209 1.78404 40.6429Z" fill="#1E1E40"/>
<path d="M12.4276 32C12.3888 32.0047 12.3495 32.0007 12.3125 31.9884C12.2754 31.976 12.2416 31.9556 12.2133 31.9286C11.9668 31.6386 11.6604 31.4054 11.3151 31.2451C10.9699 31.0848 10.594 31.0012 10.2133 31C10.1208 30.9934 10.0338 30.9537 9.96818 30.8881C9.90258 30.8225 9.86283 30.7354 9.85619 30.6429C9.85304 30.5952 9.86011 30.5473 9.87694 30.5026C9.89377 30.4578 9.91997 30.4172 9.95379 30.3834C9.9876 30.3495 10.0283 30.3233 10.073 30.3065C10.1178 30.2897 10.1656 30.2826 10.2133 30.2858C11.1304 30.3176 12.0001 30.7013 12.6419 31.3572C12.7848 31.5 12.7848 31.7143 12.6419 31.7858C12.499 31.8572 12.499 32 12.4276 32ZM7.78476 41.0715C7.57048 41.0715 7.42762 40.9286 7.49905 40.7143C7.49905 40.7143 7.64191 38.0715 7.57048 37.2143C7.57048 37.0715 7.64191 36.8572 7.85619 36.8572C8.07048 36.8572 8.21334 36.9286 8.21334 37.1429C8.27191 38.3574 8.24804 39.5745 8.14191 40.7858C8.11152 40.8598 8.06279 40.9248 8.0003 40.9748C7.93782 41.0248 7.86365 41.0581 7.78476 41.0715ZM32.8562 41.0715C32.669 41.0631 32.4913 40.987 32.3562 40.8572C31.8562 40.4286 31.7133 39.2143 31.9276 37.5C31.9276 37.3572 32.1419 37.2143 32.2848 37.2143C32.4276 37.2143 32.5705 37.4286 32.5705 37.5715C32.3562 39.6429 32.6419 40.2143 32.7848 40.3572C32.9276 40.5 32.8562 40.4286 32.9276 40.4286C32.999 40.4286 33.2848 40.5 33.2848 40.6429C33.2848 40.7858 33.2133 41 32.999 41C32.9276 41.0715 32.9276 41.0715 32.8562 41.0715ZM24.0705 33.5715C24.0317 33.5761 23.9924 33.5722 23.9553 33.5598C23.9183 33.5475 23.8844 33.527 23.8562 33.5C23.7133 33.3572 23.7133 33.1429 23.8562 33.0715C27.499 29.7858 31.0705 29.9286 31.2133 29.9286C31.2555 29.9333 31.2964 29.9463 31.3336 29.9668C31.3708 29.9872 31.4036 30.0149 31.4302 30.048C31.4567 30.0812 31.4764 30.1192 31.4882 30.16C31.5001 30.2008 31.5037 30.2436 31.499 30.2858C31.4944 30.328 31.4814 30.3688 31.4609 30.406C31.4404 30.4432 31.4128 30.4761 31.3796 30.5026C31.3465 30.5291 31.3084 30.5489 31.2676 30.5607C31.2268 30.5725 31.1841 30.5762 31.1419 30.5715C28.553 30.6724 26.0898 31.7136 24.2133 33.5C24.2133 33.5715 24.1419 33.5715 24.0705 33.5715Z" fill="#1E1E40"/>
<path d="M23.6443 31.8569C23.5014 31.8569 23.3586 31.7855 23.3586 31.6426C23.3419 31.6006 23.3343 31.5555 23.3362 31.5103C23.3382 31.4651 23.3496 31.4209 23.3699 31.3804C23.3901 31.34 23.4186 31.3042 23.4536 31.2756C23.4886 31.2469 23.5292 31.2259 23.5728 31.214C25.9367 30.2877 28.4638 29.8503 31.0014 29.9283C31.0867 29.9378 31.1647 29.9807 31.2182 30.0477C31.2718 30.1147 31.2966 30.2002 31.2871 30.2855C31.2777 30.3707 31.2347 30.4487 31.1677 30.5023C31.1008 30.5559 31.0152 30.5807 30.93 30.5712C28.4952 30.5409 26.0751 30.9523 23.7871 31.7855C23.7501 31.8262 23.6991 31.8517 23.6443 31.8569Z" fill="#1E1E40"/>
</g>
<defs>
<clipPath id="clip0">
<rect width="40" height="40" rx="20" fill="white"/>
</clipPath>
</defs>
</svg>
