<svg width="52" height="64" viewBox="0 0 52 64" fill="none" xmlns="http://www.w3.org/2000/svg">
<path fill-rule="evenodd" clip-rule="evenodd" d="M14.0008 11.2H4.00078C3.55895 11.2 3.20078 11.5582 3.20078 12V60C3.20078 60.4418 3.55895 60.8 4.00078 60.8H48.0008C48.4426 60.8 48.8008 60.4418 48.8008 60V12C48.8008 11.5582 48.4426 11.2 48.0008 11.2H38.0008H14.0008ZM39.1232 8.8H48.0008C49.7681 8.8 51.2008 10.2327 51.2008 12V60C51.2008 61.7673 49.7681 63.2 48.0008 63.2H4.00078C2.23347 63.2 0.800781 61.7673 0.800781 60V12C0.800781 10.2327 2.23347 8.8 4.00078 8.8H12.8783C13.4663 4.28598 17.3265 0.800003 22.0008 0.800003H30.0008C34.6751 0.800003 38.5352 4.28598 39.1232 8.8ZM36.6952 8.8C36.1285 5.61679 33.3469 3.2 30.0008 3.2H22.0008C18.6547 3.2 15.8731 5.61679 15.3063 8.8H36.6952ZM12.0008 16.8C10.2335 16.8 8.80078 18.2327 8.80078 20V24C8.80078 25.7673 10.2335 27.2 12.0008 27.2H16.0008C17.7681 27.2 19.2008 25.7673 19.2008 24V20C19.2008 18.2327 17.7681 16.8 16.0008 16.8H12.0008ZM11.2008 20C11.2008 19.5582 11.559 19.2 12.0008 19.2H16.0008C16.4426 19.2 16.8008 19.5582 16.8008 20V24C16.8008 24.4418 16.4426 24.8 16.0008 24.8H12.0008C11.559 24.8 11.2008 24.4418 11.2008 24V20ZM42.0008 21.2H24.0008V18.8H42.0008V21.2ZM24.0008 22.8H33.0008V25.2H24.0008V22.8ZM24.0008 35.2H40.0008V32.8H24.0008V35.2ZM40.0008 36.8H24.0008V39.2H40.0008V36.8ZM12.0008 30.8C10.2335 30.8 8.80078 32.2327 8.80078 34V38C8.80078 39.7673 10.2335 41.2 12.0008 41.2H16.0008C17.7681 41.2 19.2008 39.7673 19.2008 38V34C19.2008 32.2327 17.7681 30.8 16.0008 30.8H12.0008ZM11.2008 34C11.2008 33.5582 11.559 33.2 12.0008 33.2H16.0008C16.4426 33.2 16.8008 33.5582 16.8008 34V38C16.8008 38.4418 16.4426 38.8 16.0008 38.8H12.0008C11.559 38.8 11.2008 38.4418 11.2008 38V34ZM36.0008 49.2H24.0008V46.8H36.0008V49.2ZM8.80078 48C8.80078 46.2327 10.2335 44.8 12.0008 44.8H16.0008C17.7681 44.8 19.2008 46.2327 19.2008 48V52C19.2008 53.7673 17.7681 55.2 16.0008 55.2H12.0008C10.2335 55.2 8.80078 53.7673 8.80078 52V48ZM12.0008 47.2C11.559 47.2 11.2008 47.5582 11.2008 48V52C11.2008 52.4418 11.559 52.8 12.0008 52.8H16.0008C16.4426 52.8 16.8008 52.4418 16.8008 52V48C16.8008 47.5582 16.4426 47.2 16.0008 47.2H12.0008ZM42.0008 50.8V53.2H24.0008V50.8H42.0008Z" fill="white"/>
</svg>
