<svg width="28" height="29" viewBox="0 0 28 29" fill="none" xmlns="http://www.w3.org/2000/svg">
<path fill-rule="evenodd" clip-rule="evenodd" d="M13.9993 3.27205C17.6399 3.27205 18.0707 3.28613 19.5087 3.35166C20.8378 3.41232 21.5598 3.63438 22.0404 3.82124C22.6333 4.03972 23.1696 4.3886 23.6098 4.84217C24.0631 5.28272 24.4117 5.81947 24.63 6.41283C24.8167 6.89378 25.0386 7.61628 25.0992 8.94647C25.1647 10.3855 25.1788 10.8166 25.1788 14.46C25.1788 18.1034 25.1647 18.5345 25.0992 19.9736C25.0386 21.3038 24.8167 22.0263 24.63 22.5072C24.4029 23.0955 24.0554 23.6298 23.6098 24.0757C23.1642 24.5217 22.6304 24.8694 22.0425 25.0967C21.562 25.2835 20.84 25.5056 19.5108 25.5662C18.0734 25.6318 17.6421 25.6459 14.0014 25.6459C10.3608 25.6459 9.92949 25.6318 8.49207 25.5662C7.1629 25.5056 6.44094 25.2835 5.96036 25.0967C5.36745 24.8782 4.83111 24.5293 4.39089 24.0757C3.93767 23.6352 3.58905 23.0984 3.37074 22.5051C3.18403 22.0241 2.96214 21.3016 2.90152 19.9714C2.83604 18.5324 2.82197 18.1013 2.82197 14.4579C2.82197 10.8145 2.83604 10.3834 2.90152 8.9443C2.96214 7.61412 3.18403 6.89161 3.37074 6.41066C3.58905 5.8173 3.93767 5.28055 4.39089 4.84C4.83111 4.38644 5.36745 4.03755 5.96036 3.81907C6.44094 3.63222 7.1629 3.41016 8.49207 3.3495C9.93003 3.28396 10.3608 3.26988 14.0014 3.26988L13.9993 3.27205ZM14.0014 0.811523C10.2986 0.811523 9.83424 0.82723 8.38005 0.893848C6.92585 0.960466 5.93547 1.19282 5.06955 1.5297C4.15958 1.8725 3.33517 2.4096 2.65365 3.10361C1.96017 3.78564 1.42349 4.61068 1.08094 5.52134C0.744316 6.38792 0.513766 7.38122 0.44774 8.83327C0.381714 10.2853 0.365479 10.7522 0.365479 14.4579C0.365479 18.1635 0.381173 18.6282 0.44774 20.0835C0.514307 21.5388 0.744316 22.5278 1.08094 23.3944C1.42363 24.3047 1.9603 25.1293 2.65365 25.811C3.33494 26.5055 4.15941 27.0428 5.06955 27.3855C5.93547 27.7229 6.92802 27.9536 8.37896 28.0197C9.82991 28.0858 10.2975 28.1021 14.0004 28.1021C17.7032 28.1021 18.1676 28.0863 19.6218 28.0197C21.076 27.9531 22.0631 27.7229 22.929 27.3855C23.835 27.0352 24.6578 26.4992 25.3446 25.8118C26.0314 25.1245 26.567 24.3011 26.9171 23.3944C27.2542 22.5278 27.4848 21.5345 27.5508 20.0825C27.6168 18.6304 27.6331 18.1625 27.6331 14.4568C27.6331 10.7511 27.6174 10.2864 27.5508 8.83111C27.4843 7.37581 27.2542 6.38792 26.9171 5.52134C26.5748 4.61099 26.0383 3.78629 25.3449 3.10469C24.6635 2.41029 23.8391 1.87282 22.929 1.5297C22.0631 1.19282 21.0705 0.96209 19.6196 0.896014C18.1687 0.829938 17.7021 0.81369 13.9993 0.81369L14.0014 0.811523ZM14.0013 7.45105C12.6166 7.45105 11.2631 7.86196 10.1118 8.63181C8.96049 9.40166 8.06316 10.4959 7.53328 11.7761C7.0034 13.0563 6.86476 14.465 7.13489 15.8241C7.40502 17.1832 8.07179 18.4316 9.05089 19.4114C10.03 20.3913 11.2774 21.0585 12.6355 21.3289C13.9935 21.5992 15.4012 21.4605 16.6804 20.9302C17.9597 20.3999 19.0531 19.5019 19.8223 18.3497C20.5916 17.1976 21.0022 15.843 21.0022 14.4573C21.0023 13.5372 20.8212 12.6261 20.4694 11.776C20.1176 10.926 19.6019 10.1536 18.9518 9.50297C18.3017 8.85236 17.5299 8.33629 16.6805 7.98422C15.8311 7.63215 14.9207 7.45098 14.0013 7.45105ZM14.0013 19.0068C13.1022 19.0068 12.2232 18.7399 11.4756 18.24C10.728 17.7401 10.1454 17.0296 9.80128 16.1983C9.4572 15.367 9.36718 14.4522 9.54259 13.5697C9.718 12.6872 10.151 11.8766 10.7867 11.2403C11.4225 10.604 12.2325 10.1707 13.1144 9.99519C13.9962 9.81965 14.9103 9.90975 15.741 10.2541C16.5717 10.5984 17.2817 11.1815 17.7812 11.9297C18.2807 12.6779 18.5473 13.5575 18.5473 14.4573C18.5473 15.6639 18.0684 16.8211 17.2158 17.6743C16.3633 18.5274 15.207 19.0068 14.0013 19.0068ZM22.9146 7.1748C22.9146 8.07914 22.1822 8.81226 21.2786 8.81226C20.3751 8.81226 19.6426 8.07914 19.6426 7.1748C19.6426 6.27047 20.3751 5.53735 21.2786 5.53735C22.1822 5.53735 22.9146 6.27047 22.9146 7.1748Z" fill="white"/>
</svg>
