<svg width="30" height="18" viewBox="0 0 30 18" fill="none" xmlns="http://www.w3.org/2000/svg">
<path fill-rule="evenodd" clip-rule="evenodd" d="M28.9126 1.57201C29.1296 0.88975 28.9127 0.39356 27.9521 0.39356H24.7605C23.9549 0.39356 23.5831 0.827728 23.3662 1.29291C23.3662 1.29291 21.7239 5.26243 19.431 7.83642C18.6873 8.58071 18.3465 8.82881 17.9436 8.82881C17.7267 8.82881 17.4479 8.58071 17.4479 7.89845V1.541C17.4479 0.734691 17.2 0.362549 16.5183 0.362549H11.4986C11.0028 0.362549 10.6929 0.73469 10.6929 1.10683C10.6929 1.88213 11.8394 2.06821 11.9633 4.23904V8.95286C11.9633 9.97625 11.7774 10.1623 11.3746 10.1623C10.2901 10.1623 7.65631 6.16178 6.07602 1.60303C5.76616 0.70368 5.45631 0.362549 4.65067 0.362549H1.42814C0.498558 0.362549 0.343628 0.796714 0.343628 1.26189C0.343628 2.09922 1.42814 6.31684 5.39433 11.899C8.02814 15.7135 11.7774 17.7602 15.1549 17.7602C17.2 17.7602 17.4479 17.2951 17.4479 16.5198V13.6357C17.4479 12.7053 17.6338 12.5502 18.2845 12.5502C18.7493 12.5502 19.5859 12.7983 21.476 14.628C23.645 16.7989 24.0169 17.7913 25.2253 17.7913H28.4169C29.3465 17.7913 29.7803 17.3261 29.5324 16.4267C29.2535 15.5274 28.2 14.2249 26.8366 12.6743C26.0929 11.806 24.9774 10.8446 24.6366 10.3794C24.1718 9.75917 24.2957 9.51107 24.6366 8.95286C24.6056 8.95286 28.5098 3.43273 28.9126 1.57201Z" fill="white"/>
</svg>
