<svg width="109" height="109" viewBox="0 0 109 109" fill="none" xmlns="http://www.w3.org/2000/svg">
<g filter="url(#filter0_d)">
<path d="M40.4418 39.3465C40.6506 39.6787 41.0913 39.7787 41.4231 39.5697C41.755 39.3608 41.8549 38.9196 41.6462 38.5873C41.3803 38.1658 41.1876 37.6228 41.077 37.003C41.6943 37.1137 42.2385 37.3084 42.6596 37.5728C42.9915 37.7817 43.4322 37.6817 43.641 37.3495C43.8497 37.0173 43.7498 36.5761 43.4179 36.3671C42.7595 35.9527 41.912 35.6705 40.9699 35.5436C40.9931 34.513 41.2144 33.4073 41.6694 32.3696C42.21 31.1371 43.0807 30.0011 44.3386 29.2098C45.3307 28.5846 46.5707 28.1684 48.0909 28.0773C49.4987 28.1541 50.8405 28.3613 52.0145 28.7418C53.9933 29.3848 55.4796 30.5298 55.9221 32.4035C55.9845 32.6714 56.0291 32.9536 56.0505 33.2502C56.1273 34.3112 55.699 35.4222 54.7837 36.301C53.9326 37.1191 52.6658 37.7407 50.9904 37.9586C50.6014 38.0086 50.3248 38.3641 50.3748 38.7534C50.3908 38.8767 50.4372 38.9874 50.505 39.0821C51.9075 41.1559 52.3036 43.1082 51.9806 44.6622C51.8058 45.5071 51.4132 46.2341 50.8565 46.7931C50.2998 47.3504 49.5737 47.7434 48.7279 47.9184C47.172 48.2418 45.2147 47.8434 43.136 46.427C42.8113 46.2073 42.3688 46.2912 42.1493 46.6163C42.0851 46.7128 42.0458 46.8181 42.0316 46.9253C41.8139 48.6008 41.1948 49.8708 40.3758 50.7228C39.4979 51.6391 38.3881 52.0678 37.3283 51.991C37.0321 51.9696 36.7501 51.9267 36.4825 51.8624C34.6108 51.4194 33.4671 49.9297 32.8248 47.9506C32.4447 46.7753 32.2377 45.4321 32.161 44.0227C32.252 42.5009 32.6678 41.2595 33.2922 40.2664C34.0845 39.0071 35.2175 38.1354 36.4486 37.5942C37.4853 37.1387 38.5879 36.9172 39.6192 36.894C39.7459 37.8371 40.0278 38.6856 40.4418 39.3447V39.3465ZM40.3633 31.8015C39.8387 33.0001 39.5782 34.2772 39.5461 35.4722C38.3524 35.5043 37.0785 35.7651 35.8794 36.2903C34.5305 36.8833 33.2762 37.8121 32.3395 39.1321C32.5054 37.6871 32.757 36.2974 33.046 35.0721C33.5563 32.9144 33.7954 31.1657 33.84 29.7617C35.2424 29.717 36.9875 29.4777 39.1446 28.9668C40.3704 28.6775 41.7568 28.4256 43.2003 28.2595C41.8817 29.1973 40.9539 30.453 40.3615 31.8033L40.3633 31.8015ZM48.1391 26.6519L48.1141 26.6501C46.9401 26.5876 45.7339 26.6108 44.542 26.6966C42.5062 26.843 40.5149 27.1735 38.8235 27.5736C36.7145 28.0737 35.0765 28.3238 33.8204 28.3988C33.6455 25.9553 32.7302 24.9175 31.756 24.6871C30.937 24.4924 30.0913 24.8336 29.506 25.4194C28.9208 26.0053 28.5818 26.852 28.7745 27.6718C29.0047 28.6471 30.0431 29.5634 32.4822 29.7385C32.4073 30.996 32.1575 32.6357 31.6579 34.747C31.2582 36.4403 30.9281 38.4355 30.7818 40.4718C30.6961 41.665 30.673 42.8724 30.7354 44.0477L30.7372 44.0728C30.8193 45.6071 31.0476 47.0825 31.4687 48.3864C32.2592 50.8282 33.7205 52.6769 36.1578 53.2538C36.495 53.3342 36.8501 53.3878 37.2265 53.4146C38.6968 53.52 40.217 52.9448 41.3999 51.7106C42.2261 50.8496 42.888 49.6654 43.2449 48.1703C45.3449 49.3563 47.3469 49.66 49.0152 49.3117C50.141 49.0777 51.1117 48.5508 51.8629 47.8006C52.6123 47.0504 53.1386 46.0769 53.3723 44.9498C53.7185 43.2797 53.4152 41.2738 52.2322 39.1732C53.7256 38.816 54.9086 38.1533 55.7686 37.3263C57.0015 36.142 57.5761 34.6202 57.4708 33.1483C57.444 32.7715 57.3887 32.416 57.3102 32.0784C56.7339 29.6402 54.8872 28.1773 52.4481 27.3843C51.1456 26.9609 49.6718 26.7341 48.1391 26.6519ZM86.3509 1.50577C86.7434 1.50577 87.061 1.18783 87.061 0.794861C87.061 0.401894 86.7434 0.0839539 86.3509 0.0839539L14.9018 0.0928802C14.404 0.0553741 13.9062 0.030365 13.4102 0.0196457C13.2907 0.0178604 13.1782 0.0446548 13.0801 0.0946655H8.61946C7.65596 0.0357208 6.64071 0.00357056 5.56837 0C5.4399 0 5.31857 0.0339355 5.21508 0.0946655H4.71014C4.3176 0.0946655 4 0.412613 4 0.80558L4.19984 82.3279C4.19984 82.7208 4.51744 83.0388 4.90997 83.0388C5.30251 83.0388 5.62011 82.7208 5.62011 82.3279L5.60584 76.7442C5.63617 76.8138 5.66829 76.8853 5.70397 76.955C6.82806 79.2324 8.68369 80.5738 10.6571 80.9721C11.7865 81.2008 12.9481 81.1204 14.0329 80.7328C14.3933 80.6042 14.7448 80.4416 15.0838 80.2434L15.1267 93.2666C15.1267 93.6595 15.4443 93.9775 15.8368 93.9775C16.2293 93.9775 16.5469 93.6595 16.5469 93.2666L16.5005 79.1377C16.6504 78.9859 16.795 78.8233 16.9359 78.6536C18.54 76.6942 19.4142 73.554 18.6649 69.2528C18.5988 68.8652 18.2313 68.6027 17.8423 68.6688C17.4551 68.7349 17.1928 69.1028 17.2589 69.4922C17.9297 73.3397 17.2 76.0833 15.8368 77.7498C15.1909 78.5375 14.4005 79.0841 13.5512 79.3878C12.7054 79.6896 11.8044 79.7521 10.9336 79.5771C9.37242 79.2609 7.89326 78.1767 6.97794 76.3244C6.31954 74.9901 6.812 73.5308 7.74874 72.5109C8.18231 72.0375 8.70867 71.6607 9.25822 71.432C9.77388 71.2177 10.3056 71.1373 10.7909 71.2409C11.6152 71.4177 12.3521 72.1644 12.7054 73.7451C12.7893 74.1292 13.1693 74.3721 13.5529 74.2864C13.9366 74.2024 14.1792 73.822 14.0936 73.4379C13.5958 71.2105 12.4289 70.1317 11.0853 69.8441C10.3056 69.678 9.48483 69.7923 8.71224 70.1138C7.97355 70.421 7.27234 70.9212 6.70137 71.5445C6.23568 72.0518 5.85207 72.6448 5.59692 73.2843L5.46131 18.0138C6.47834 21.3201 7.97534 24.437 9.76317 27.0663C11.0835 29.1883 12.3628 31.6694 13.3085 34.1111C14.1899 36.3903 14.7805 38.6266 14.834 40.4825C14.8787 41.999 14.6521 43.6655 13.9562 45.5357C13.3638 47.1254 12.436 48.8651 11.0478 50.7853C9.93267 52.1893 9.00129 53.6164 8.37501 54.7828C8.24298 54.9882 8.21978 55.2544 8.33576 55.4884C9.09407 57.0102 10.3663 59.0072 11.9096 60.8416C13.321 62.5189 14.9625 64.0639 16.654 64.9999C18.4615 66.0002 20.3349 66.3235 22.0871 65.45C22.4475 65.2696 22.8061 65.0338 23.1594 64.7355C24.1051 63.9371 24.6814 62.7064 24.6725 61.2792C24.6653 60.0611 24.23 58.7018 23.229 57.3657C22.9935 57.0513 22.5474 56.987 22.2334 57.2228C21.9194 57.4586 21.8551 57.9051 22.0906 58.2195C22.8953 59.293 23.2433 60.354 23.2486 61.2846C23.2558 62.2759 22.8722 63.1172 22.2423 63.6477C21.9889 63.8621 21.7231 64.0354 21.4483 64.1729C20.1779 64.807 18.7523 64.5337 17.3374 63.7513C15.8065 62.9047 14.3006 61.4811 12.9945 59.9271C11.6438 58.3213 10.5108 56.5797 9.77744 55.1794C10.186 54.4506 10.7106 53.6272 11.3226 52.7787C11.6045 52.4197 11.874 52.0642 12.1273 51.7159C12.4431 51.3176 12.7768 50.9193 13.1229 50.5299C14.4754 49.008 16.0206 47.6237 17.5693 46.8217C19.0057 46.0769 20.4402 45.8429 21.691 46.5109C21.9497 46.6485 22.2084 46.8307 22.4671 47.0611C23.0827 47.6094 23.4431 48.4597 23.411 49.4492C23.3807 50.3798 23.0024 51.4319 22.1692 52.484C21.9265 52.793 21.9782 53.2395 22.2869 53.4825C22.5956 53.7254 23.0417 53.6736 23.2843 53.3646C24.321 52.0553 24.792 50.7085 24.8331 49.4921C24.8812 48.0631 24.3388 46.8164 23.4164 45.9929C23.0809 45.6946 22.7294 45.4499 22.3619 45.2534C20.6329 44.33 18.7523 44.6033 16.9181 45.5535C16.2615 45.8929 15.612 46.3216 14.9786 46.811C15.091 46.5484 15.1927 46.2894 15.289 46.0322C16.0563 43.9709 16.3061 42.1258 16.2561 40.4432C16.1972 38.4105 15.5727 36.0134 14.636 33.5967C14.3969 32.9804 14.1382 32.3624 13.8634 31.748C14.6717 32.4428 15.5067 33.0358 16.356 33.5127C17.9672 34.4183 19.6373 34.906 21.302 34.8685C23.1808 34.8256 25.0258 34.1182 26.7369 32.5946C27.4755 31.9373 27.8342 31.23 27.8485 30.4583C27.8627 29.7224 27.5487 28.9811 26.9421 28.2149C24.7474 25.4391 21.6785 24.162 18.4971 22.8402C12.2094 20.227 5.46131 17.4208 5.42206 1.56828V1.5147H8.53381C21.773 2.34885 24.3799 8.63093 26.8189 14.5093C28.1393 17.6941 29.415 20.7664 32.1878 22.9634C32.9532 23.5707 33.6937 23.8851 34.4288 23.8708C35.1996 23.8565 35.9062 23.4975 36.5628 22.758C38.0848 21.045 38.7913 19.1999 38.8342 17.3172C38.8716 15.6507 38.3845 13.9788 37.4799 12.3659C36.9964 11.5031 36.3933 10.6565 35.6885 9.83662C36.3166 10.1188 36.9482 10.385 37.5763 10.6279C39.9904 11.5639 42.3849 12.1908 44.4153 12.2498C46.0961 12.298 47.9393 12.0479 49.9983 11.2817C50.2659 11.1816 50.5354 11.0745 50.8101 10.9566C50.348 11.5639 49.943 12.1873 49.6183 12.8142C48.669 14.6504 48.396 16.5331 49.3185 18.2639C49.5148 18.6301 49.7592 18.9838 50.0572 19.3196C50.8779 20.243 52.1251 20.786 53.5526 20.7378C54.7676 20.6967 56.113 20.2252 57.4208 19.1874C57.7295 18.9445 57.7813 18.4961 57.5386 18.1889C57.2959 17.8799 56.8481 17.8281 56.5412 18.071C55.4903 18.9052 54.4393 19.2821 53.5097 19.3142C52.523 19.3481 51.6719 18.9855 51.1242 18.3693C50.8958 18.1121 50.7138 17.8531 50.5746 17.5923C49.9073 16.3402 50.141 14.9041 50.8851 13.4662C51.6862 11.9158 53.069 10.3689 54.5892 9.01496C54.8711 8.76311 55.1584 8.5184 55.4474 8.28262C55.881 7.97182 56.3217 7.63959 56.7732 7.28413C56.8106 7.25377 56.8463 7.21983 56.8766 7.1841C57.7099 6.58394 58.5182 6.06952 59.2337 5.66583C60.6325 6.39996 62.3722 7.53599 63.9762 8.88636C65.5285 10.1956 66.9506 11.7032 67.7963 13.234C68.5778 14.6504 68.8508 16.0776 68.2174 17.3494C68.08 17.6245 67.907 17.8906 67.6928 18.1442C67.1629 18.7748 66.3225 19.157 65.3323 19.1517C64.4027 19.1463 63.3428 18.7962 62.2705 17.9924C61.9564 17.7566 61.5104 17.8209 61.2748 18.1353C61.0393 18.4497 61.1036 18.8962 61.4176 19.132C62.754 20.1341 64.1118 20.5681 65.3269 20.577C66.7525 20.586 67.9837 20.009 68.7795 19.0623C69.0774 18.7087 69.313 18.3497 69.4932 17.9888C70.3675 16.2348 70.0427 14.3611 69.0435 12.5499C68.1086 10.8548 66.5652 9.21145 64.8898 7.80035C63.0573 6.25528 61.0625 4.98172 59.5423 4.22258C59.3086 4.10648 59.0427 4.1297 58.8375 4.26188C57.5868 4.93528 56.0345 5.96056 54.5339 7.18768C52.6997 8.49161 51.0332 9.37578 49.5023 9.94736C47.6342 10.644 45.9694 10.8708 44.4546 10.8262C42.599 10.7726 40.3669 10.1831 38.0901 9.29897C35.412 8.26118 32.691 6.81972 30.4446 5.36397C30.4196 5.34789 30.3928 5.3336 30.3678 5.31931C27.9359 3.75639 25.1275 2.44174 22.1656 1.51112L77.2636 1.50577C76.6463 1.76119 76.0753 2.1363 75.5829 2.5882C74.9601 3.15979 74.4606 3.86177 74.1537 4.60126C73.8325 5.37468 73.7183 6.19812 73.8842 6.97691C74.1697 8.32191 75.2492 9.4883 77.4742 9.98844C77.8578 10.0724 78.2378 9.83126 78.3217 9.44723C78.4056 9.06319 78.1647 8.68273 77.7811 8.59878C76.202 8.24511 75.4544 7.50741 75.2795 6.68218C75.176 6.19812 75.2563 5.66583 75.4704 5.14783C75.6988 4.59769 76.0753 4.07254 76.5481 3.63671C77.5687 2.69895 79.0265 2.20596 80.3575 2.86507C82.2078 3.7796 83.2909 5.26037 83.6067 6.82508C83.7833 7.69675 83.7191 8.59878 83.4176 9.44543C83.1142 10.2957 82.57 11.087 81.7814 11.7336C80.1185 13.0982 77.3778 13.8288 73.5327 13.1572C73.1456 13.0911 72.7762 13.3519 72.7102 13.7413C72.6442 14.1289 72.9047 14.4986 73.2936 14.5647C77.5919 15.3149 80.7269 14.4414 82.6842 12.8339C82.8537 12.6945 83.0161 12.5481 83.1678 12.398L97.2813 12.4445C97.6738 12.4445 97.9914 12.1265 97.9914 11.7336C97.9914 11.3406 97.6738 11.0227 97.2813 11.0227L84.2722 10.9798C84.4685 10.6404 84.6309 10.2885 84.7611 9.92771C85.1483 8.84171 85.2286 7.67889 85.0002 6.54822C84.6005 4.57268 83.2623 2.71503 80.9874 1.58972C80.9285 1.56114 80.8696 1.53256 80.809 1.50577H86.3545H86.3509ZM90.7241 6.70004C90.3316 6.70004 90.014 7.01799 90.014 7.41095C90.014 7.80392 90.3316 8.12186 90.7241 8.12186H104.29C104.682 8.12186 105 7.80392 105 7.41095C105 7.01799 104.682 6.70004 104.29 6.70004H90.7241ZM31.4313 26.0786C31.9523 26.2018 32.4108 26.8573 32.4947 28.4131C30.9406 28.3292 30.2858 27.8701 30.1627 27.3485C30.0913 27.0431 30.2519 26.6948 30.5142 26.4304C30.7782 26.1661 31.1262 26.0053 31.4313 26.0786ZM12.2308 86.704C12.2308 86.3093 11.9114 85.9896 11.5171 85.9896C11.1228 85.9896 10.8034 86.3093 10.8034 86.704V100.285C10.8034 100.679 11.1228 100.999 11.5171 100.999C11.9114 100.999 12.2308 100.679 12.2308 100.285V86.704ZM10.9426 26.2679C10.8177 26.0678 10.6928 25.8714 10.5679 25.6784C10.5411 25.6391 10.5126 25.6016 10.4804 25.5695C8.27509 22.1239 6.59253 17.8942 5.85028 13.5608C8.42854 20.1984 13.3067 22.2275 17.9494 24.1584C20.9594 25.4105 23.866 26.618 25.8251 29.0972C26.2248 29.6027 26.4318 30.0475 26.4246 30.4369C26.4175 30.7906 26.2123 31.1514 25.7876 31.53C24.3442 32.8161 22.8151 33.4109 21.2735 33.4466C19.8764 33.4788 18.449 33.0537 17.0519 32.2695C15.6191 31.464 14.2203 30.2797 12.9177 28.815C12.2272 28.038 11.5671 27.186 10.9426 26.2697V26.2679ZM17.5479 1.8505C23.3628 2.84899 28.9886 5.54616 32.7837 8.92565C34.2468 10.2296 35.4298 11.6282 36.2345 13.0643C37.0196 14.4629 37.4424 15.8918 37.4103 17.2904C37.3746 18.8319 36.7805 20.3645 35.4958 21.8095C35.1175 22.2346 34.7571 22.4401 34.4038 22.4472C34.0149 22.4543 33.5706 22.2471 33.0656 21.847C30.5891 19.884 29.3829 16.9761 28.1322 13.9627C26.2052 9.31505 24.1782 4.43156 17.5461 1.8505H17.5479Z" fill="white"/>
</g>
<defs>
<filter id="filter0_d" x="0" y="0" width="109" height="108.999" filterUnits="userSpaceOnUse" color-interpolation-filters="sRGB">
<feFlood flood-opacity="0" result="BackgroundImageFix"/>
<feColorMatrix in="SourceAlpha" type="matrix" values="0 0 0 0 0 0 0 0 0 0 0 0 0 0 0 0 0 0 127 0"/>
<feOffset dy="4"/>
<feGaussianBlur stdDeviation="2"/>
<feColorMatrix type="matrix" values="0 0 0 0 0 0 0 0 0 0 0 0 0 0 0 0 0 0 0.25 0"/>
<feBlend mode="normal" in2="BackgroundImageFix" result="effect1_dropShadow"/>
<feBlend mode="normal" in="SourceGraphic" in2="effect1_dropShadow" result="shape"/>
</filter>
</defs>
</svg>
