<svg width="101" height="101" viewBox="0 0 101 101" fill="none" xmlns="http://www.w3.org/2000/svg">
<path d="M64.5582 61.653C64.3494 61.3207 63.9087 61.2207 63.5769 61.4297C63.245 61.6387 63.1451 62.0799 63.3538 62.4121C63.6197 62.8337 63.8124 63.3767 63.923 63.9965C63.3057 63.8858 62.7615 63.6911 62.3404 63.4267C62.0085 63.2177 61.5678 63.3177 61.359 63.65C61.1503 63.9822 61.2502 64.4234 61.5821 64.6324C62.2405 65.0468 63.088 65.329 64.0301 65.4558C64.0069 66.4865 63.7856 67.5922 63.3306 68.63C62.79 69.8625 61.9193 70.9985 60.6614 71.7898C59.6693 72.415 58.4293 72.8312 56.9091 72.9223C55.5013 72.8455 54.1595 72.6383 52.9855 72.2578C51.0067 71.6148 49.5204 70.4698 49.0779 68.596C49.0155 68.3281 48.9709 68.0459 48.9495 67.7494C48.8727 66.6883 49.301 65.5773 50.2163 64.6985C51.0674 63.8804 52.3342 63.2588 54.0096 63.0409C54.3986 62.9909 54.6752 62.6354 54.6252 62.246C54.6092 62.1227 54.5628 62.012 54.495 61.9173C53.0925 59.8435 52.6964 57.8912 53.0194 56.3372C53.1942 55.4923 53.5868 54.7653 54.1435 54.2062C54.7002 53.6489 55.4263 53.2559 56.2721 53.0809C57.828 52.7575 59.7853 53.1559 61.864 54.5724C62.1887 54.7921 62.6312 54.7081 62.8507 54.383C62.9149 54.2866 62.9542 54.1812 62.9684 54.074C63.1861 52.3985 63.8052 51.1285 64.6242 50.2765C65.5021 49.3601 66.6119 48.9314 67.6717 49.0083C67.9679 49.0297 68.2499 49.0726 68.5175 49.1369C70.3892 49.5798 71.5329 51.0696 72.1752 53.0487C72.5553 54.224 72.7623 55.5673 72.839 56.9766C72.748 58.4985 72.3322 59.7399 71.7078 60.7331C70.9155 61.9924 69.7825 62.864 68.5514 63.4053C67.5147 63.8607 66.4121 64.0822 65.3808 64.1055C65.2541 63.1623 64.9722 62.3139 64.5582 61.6548V61.653ZM64.6367 69.198C65.1613 67.9994 65.4218 66.7223 65.4539 65.5273C66.6476 65.4951 67.9215 65.2344 69.1206 64.7092C70.4695 64.1162 71.7238 63.1873 72.6605 61.8673C72.4946 63.3124 72.243 64.7021 71.954 65.9274C71.4437 68.0852 71.2046 69.8339 71.16 71.2379C69.7576 71.2825 68.0125 71.5219 65.8554 72.0327C64.6296 72.3221 63.2432 72.574 61.7997 72.7401C63.1183 71.8023 64.0461 70.5466 64.6385 69.1962L64.6367 69.198ZM56.8609 74.3477L56.8859 74.3495C58.0599 74.412 59.2661 74.3888 60.458 74.303C62.4938 74.1566 64.4851 73.8261 66.1765 73.426C68.2855 72.9258 69.9235 72.6758 71.1796 72.6008C71.3545 75.0443 72.2698 76.0821 73.244 76.3125C74.063 76.5072 74.9087 76.1661 75.494 75.5802C76.0792 74.9943 76.4182 74.1476 76.2255 73.3278C75.9953 72.3525 74.9569 71.4361 72.5178 71.2611C72.5927 70.0036 72.8425 68.3638 73.3421 66.2525C73.7418 64.5592 74.0719 62.5639 74.2182 60.5276C74.3039 59.3344 74.327 58.127 74.2646 56.9516L74.2628 56.9266C74.1807 55.3922 73.9524 53.9168 73.5313 52.6129C72.7408 50.1711 71.2795 48.3223 68.8422 47.7454C68.505 47.665 68.1499 47.6114 67.7735 47.5846C66.3032 47.4792 64.783 48.0544 63.6001 49.2887C62.7739 50.1497 62.112 51.3339 61.7551 52.829C59.6551 51.6429 57.6531 51.3393 55.9848 51.6876C54.859 51.9216 53.8883 52.4485 53.1371 53.1987C52.3877 53.949 51.8614 54.9225 51.6277 56.0496C51.2815 57.7197 51.5848 59.7256 52.7678 61.8262C51.2744 62.1835 50.0914 62.8462 49.2314 63.6732C47.9985 64.8575 47.4239 66.3793 47.5292 67.8512C47.556 68.2281 47.6113 68.5835 47.6898 68.9211C48.2661 71.3593 50.1128 72.8223 52.5519 73.6153C53.8544 74.0387 55.3282 74.2655 56.8609 74.3477ZM18.6491 99.4942C18.2566 99.4942 17.939 99.8122 17.939 100.205C17.939 100.598 18.2566 100.916 18.6491 100.916L90.0982 100.907C90.596 100.945 91.0938 100.97 91.5898 100.98C91.7093 100.982 91.8218 100.955 91.9199 100.905H96.3805C97.344 100.964 98.3593 100.996 99.4316 101C99.5601 101 99.6814 100.966 99.7849 100.905H100.29C100.682 100.905 101 100.587 101 100.194L100.8 18.671C100.8 18.278 100.483 17.96 100.09 17.96C99.6975 17.96 99.3799 18.278 99.3799 18.671L99.3942 24.2547C99.3638 24.185 99.3317 24.1136 99.296 24.0439C98.1719 21.7665 96.3163 20.425 94.3429 20.0267C93.2135 19.7981 92.0519 19.8784 90.9671 20.2661C90.6067 20.3947 90.2552 20.5572 89.9162 20.7555L89.8733 7.73209C89.8733 7.33912 89.5557 7.02117 89.1632 7.02117C88.7707 7.02117 88.4531 7.33912 88.4531 7.73209L88.4995 21.8612C88.3496 22.013 88.205 22.1755 88.0641 22.3452C86.46 24.3047 85.5858 27.4449 86.3351 31.7461C86.4012 32.1338 86.7687 32.3963 87.1577 32.3302C87.5449 32.2642 87.8072 31.8962 87.7411 31.5068C87.0703 27.6593 87.8 24.9156 89.1632 23.2491C89.8091 22.4613 90.5995 21.9147 91.4488 21.6111C92.2946 21.3092 93.1956 21.2467 94.0664 21.4217C95.6276 21.7379 97.1067 22.8222 98.0221 24.6745C98.6805 26.0088 98.188 27.4681 97.2513 28.4881C96.8177 28.9614 96.2913 29.3383 95.7418 29.5669C95.2261 29.7813 94.6944 29.8617 94.2091 29.7581C93.3848 29.5812 92.6479 28.8346 92.2946 27.2538C92.2107 26.8697 91.8307 26.6268 91.4471 26.7126C91.0634 26.7965 90.8208 27.177 90.9064 27.561C91.4042 29.7884 92.5711 30.8673 93.9147 31.1549C94.6944 31.321 95.5152 31.2067 96.2878 30.8852C97.0264 30.578 97.7277 30.0778 98.2986 29.4544C98.7643 28.9471 99.1479 28.3541 99.4031 27.7146L99.5387 82.9859C98.5217 79.6796 97.0247 76.5626 95.2368 73.9333C93.9165 71.8112 92.6372 69.3302 91.6915 66.8884C90.8101 64.6092 90.2195 62.3728 90.166 60.5169C90.1213 59.0004 90.3479 57.3339 91.0438 55.4637C91.6362 53.8739 92.564 52.1342 93.9522 50.214C95.0673 48.81 95.9987 47.3828 96.625 46.2164C96.757 46.011 96.7802 45.7448 96.6642 45.5108C95.9059 43.989 94.6337 41.992 93.0904 40.1575C91.679 38.4802 90.0375 36.9351 88.346 35.9992C86.5385 34.9989 84.6651 34.6756 82.9129 35.549C82.5525 35.7294 82.1939 35.9652 81.8406 36.2635C80.8949 37.062 80.3186 38.2927 80.3275 39.7199C80.3347 40.9381 80.77 42.2974 81.771 43.6335C82.0065 43.9479 82.4526 44.0122 82.7666 43.7764C83.0806 43.5406 83.1449 43.0941 82.9094 42.7797C82.1047 41.7062 81.7567 40.6451 81.7514 39.7145C81.7442 38.7232 82.1278 37.8818 82.7577 37.3513C83.0111 37.137 83.2769 36.9637 83.5517 36.8262C84.8221 36.1921 86.2477 36.4654 87.6626 37.2477C89.1935 38.0944 90.6994 39.518 92.0055 41.072C93.3562 42.6779 94.4892 44.4194 95.2226 45.8198C94.814 46.5486 94.2894 47.3721 93.6774 48.2205C93.3955 48.5796 93.126 48.935 92.8727 49.2833C92.5569 49.6817 92.2232 50.08 91.8771 50.4694C90.5246 51.9913 88.9794 53.3756 87.4307 54.1776C85.9943 54.9225 84.5598 55.1565 83.309 54.4884C83.0503 54.3509 82.7916 54.1687 82.5329 53.9382C81.9173 53.3899 81.5569 52.5396 81.589 51.5501C81.6193 50.6194 81.9976 49.5673 82.8308 48.5153C83.0735 48.2062 83.0218 47.7597 82.7131 47.5168C82.4044 47.2738 81.9583 47.3256 81.7157 47.6346C80.679 48.944 80.208 50.2908 80.1669 51.5072C80.1188 52.9362 80.6612 54.183 81.5836 55.0064C81.9191 55.3047 82.2706 55.5494 82.6381 55.7459C84.3671 56.6694 86.2477 56.3961 88.0819 55.4458C88.7385 55.1064 89.388 54.6777 90.0214 54.1883C89.909 54.4509 89.8073 54.7099 89.711 54.9671C88.9437 57.0284 88.6939 58.8736 88.7439 60.5562C88.8028 62.589 89.4273 64.9861 90.364 67.4028C90.6031 68.0191 90.8618 68.6371 91.1366 69.2516C90.3283 68.5567 89.4933 67.9637 88.644 67.4868C87.0328 66.5812 85.3627 66.0935 83.698 66.131C81.8192 66.1739 79.9742 66.8813 78.2631 68.4049C77.5245 69.0622 77.1658 69.7696 77.1515 70.5412C77.1373 71.2772 77.4513 72.0184 78.0579 72.7847C80.2526 75.5605 83.3215 76.8377 86.5029 78.1595C92.7906 80.7728 99.5387 83.5789 99.5779 99.4317V99.4853H96.4662C83.227 98.6511 80.6201 92.3689 78.1811 86.4905C76.8607 83.3056 75.585 80.2333 72.8122 78.0363C72.0468 77.4289 71.3063 77.1146 70.5712 77.1288C69.8004 77.1431 69.0938 77.5022 68.4372 78.2417C66.9152 79.9547 66.2087 81.7998 66.1658 83.6825C66.1284 85.3491 66.6155 87.021 67.5201 88.6339C68.0036 89.4967 68.6067 90.3434 69.3115 91.1632C68.6834 90.881 68.0518 90.6149 67.4237 90.3719C65.0096 89.436 62.6151 88.809 60.5847 88.75C58.9039 88.7018 57.0607 88.9519 55.0017 89.7182C54.7341 89.8182 54.4646 89.9254 54.1899 90.0433C54.652 89.436 55.057 88.8126 55.3817 88.1856C56.331 86.3494 56.604 84.4667 55.6815 82.7358C55.4852 82.3696 55.2408 82.016 54.9428 81.6802C54.1221 80.7567 52.8749 80.2137 51.4474 80.2619C50.2324 80.303 48.887 80.7745 47.5792 81.8123C47.2705 82.0553 47.2187 82.5036 47.4614 82.8108C47.7041 83.1199 48.1519 83.1717 48.4588 82.9287C49.5097 82.0946 50.5607 81.7177 51.4903 81.6855C52.477 81.6516 53.3281 82.0142 53.8758 82.6304C54.1042 82.8876 54.2862 83.1467 54.4254 83.4074C55.0927 84.6596 54.859 86.0957 54.1149 87.5336C53.3138 89.0841 51.931 90.631 50.4108 91.9849C50.1289 92.2368 49.8416 92.4815 49.5526 92.7173C49.119 93.0281 48.6783 93.3603 48.2268 93.7158C48.1894 93.7461 48.1537 93.7801 48.1234 93.8158C47.2901 94.416 46.4818 94.9304 45.7663 95.3341C44.3675 94.5999 42.6278 93.4639 41.0238 92.1135C39.4715 90.8042 38.0494 89.2966 37.2037 87.7658C36.4222 86.3494 36.1492 84.9222 36.7826 83.6504C36.92 83.3753 37.093 83.1091 37.3072 82.8555C37.8371 82.225 38.6775 81.8427 39.6677 81.8481C40.5973 81.8534 41.6572 82.2035 42.7295 83.0073C43.0436 83.2431 43.4896 83.1788 43.7252 82.8644C43.9607 82.55 43.8964 82.1035 43.5824 81.8677C42.246 80.8656 40.8882 80.4316 39.6731 80.4227C38.2475 80.4137 37.0163 80.9907 36.2205 81.9374C35.9226 82.291 35.687 82.6501 35.5068 83.0109C34.6325 84.765 34.9573 86.6387 35.9565 88.45C36.8914 90.1451 38.4348 91.7884 40.1102 93.1995C41.9427 94.7446 43.9375 96.0182 45.4577 96.7774C45.6914 96.8935 45.9573 96.8702 46.1625 96.7381C47.4132 96.0647 48.9655 95.0394 50.4661 93.8122C52.3003 92.5083 53.9668 91.6241 55.4977 91.0525C57.3658 90.3559 59.0306 90.129 60.5454 90.1737C62.401 90.2273 64.6331 90.8167 66.9099 91.7009C69.588 92.7387 72.309 94.1802 74.5554 95.636C74.5804 95.652 74.6072 95.6663 74.6322 95.6806C77.0641 97.2436 79.8725 98.5582 82.8344 99.4889L27.7364 99.4942C28.3537 99.2388 28.9247 98.8637 29.4171 98.4118C30.0399 97.8402 30.5394 97.1382 30.8463 96.3987C31.1675 95.6252 31.2817 94.8018 31.1158 94.023C30.8303 92.678 29.7508 91.5116 27.5258 91.0114C27.1422 90.9275 26.7622 91.1686 26.6783 91.5526C26.5944 91.9367 26.8353 92.3171 27.2189 92.4011C28.798 92.7548 29.5456 93.4925 29.7205 94.3177C29.824 94.8018 29.7437 95.3341 29.5296 95.8521C29.3012 96.4023 28.9247 96.9274 28.4519 97.3632C27.4313 98.301 25.9735 98.794 24.6425 98.1349C22.7922 97.2203 21.7091 95.7396 21.3933 94.1748C21.2167 93.3031 21.2809 92.4011 21.5824 91.5544C21.8858 90.7042 22.43 89.9129 23.2186 89.2663C24.8815 87.9016 27.6222 87.171 31.4673 87.8426C31.8544 87.9087 32.2238 87.6479 32.2898 87.2586C32.3558 86.8709 32.0953 86.5012 31.7064 86.4351C27.4081 85.6849 24.2731 86.5583 22.3158 88.166C22.1463 88.3053 21.9839 88.4518 21.8322 88.6018L7.71872 88.5554C7.32618 88.5554 7.00858 88.8733 7.00858 89.2663C7.00858 89.6592 7.32618 89.9772 7.71872 89.9772L20.7278 90.0201C20.5315 90.3594 20.3691 90.7113 20.2389 91.0721C19.8517 92.1582 19.7714 93.321 19.9998 94.4517C20.3995 96.4273 21.7377 98.2849 24.0126 99.4103C24.0715 99.4388 24.1304 99.4674 24.191 99.4942H18.6455H18.6491ZM14.2759 94.2999C14.6684 94.2999 14.986 93.9819 14.986 93.5889C14.986 93.196 14.6684 92.878 14.2759 92.878H0.710136C0.317596 92.878 0 93.196 0 93.5889C0 93.9819 0.317596 94.2999 0.710136 94.2999H14.2759ZM73.5687 74.9211C73.0477 74.7978 72.5892 74.1423 72.5053 72.5865C74.0594 72.6704 74.7142 73.1295 74.8373 73.6511C74.9087 73.9565 74.7481 74.3048 74.4858 74.5692C74.2218 74.8335 73.8738 74.9943 73.5687 74.9211ZM92.7692 14.2947C92.7692 14.6895 93.0886 15.0092 93.4829 15.0092C93.8772 15.0092 94.1966 14.6895 94.1966 14.2947V0.714003C94.1966 0.319247 93.8772 -0.000488281 93.4829 -0.000488281C93.0886 -0.000488281 92.7692 0.319247 92.7692 0.714003V14.2947ZM94.0574 74.7317C94.1823 74.9318 94.3072 75.1283 94.4321 75.3212C94.4589 75.3605 94.4874 75.398 94.5196 75.4301C96.7249 78.8758 98.4075 83.1056 99.1497 87.439C96.5715 80.8013 91.6933 78.7722 87.0506 76.8413C84.0406 75.5891 81.134 74.3816 79.1749 71.9023C78.7752 71.3968 78.5682 70.9521 78.5754 70.5627C78.5825 70.209 78.7877 69.8482 79.2124 69.4695C80.6558 68.1834 82.1849 67.5886 83.7265 67.5529C85.1236 67.5207 86.551 67.9458 87.9481 68.73C89.3809 69.5356 90.7797 70.7199 92.0823 72.1846C92.7728 72.9616 93.4329 73.8136 94.0574 74.7299V74.7317ZM87.4521 99.1495C81.6372 98.151 76.0114 95.4538 72.2163 92.0742C70.7532 90.7703 69.5702 89.3717 68.7655 87.9355C67.9804 86.5369 67.5576 85.1079 67.5897 83.7093C67.6254 82.1678 68.2195 80.6352 69.5042 79.1902C69.8825 78.765 70.2429 78.5596 70.5962 78.5525C70.9851 78.5453 71.4294 78.7525 71.9344 79.1526C74.4109 81.1157 75.6171 84.0237 76.8678 87.0371C78.7948 91.6848 80.8218 96.5684 87.4539 99.1495H87.4521Z" fill="white"/>
</svg>
